<svg xmlns="http://www.w3.org/2000/svg" width="1080" height="1080" viewBox="0 0 1080 1080" version="1.1"><path d="M 384.500 82.518 C 377.900 84.378, 367.775 87.676, 362 89.848 C 356.225 92.020, 348.350 95.129, 344.500 96.758 C 340.650 98.387, 333.450 101.802, 328.500 104.346 C 323.550 106.891, 317.250 110.226, 314.500 111.759 C 311.750 113.291, 307.250 115.868, 304.500 117.485 C 301.750 119.103, 295.450 123.143, 290.500 126.463 C 285.550 129.783, 279.700 133.823, 277.500 135.441 C 275.300 137.058, 271.025 140.206, 268 142.435 C 264.975 144.665, 259.350 149.135, 255.500 152.368 C 251.650 155.601, 243.100 163.559, 236.500 170.052 C 229.900 176.546, 222.250 184.211, 219.500 187.088 C 216.750 189.964, 213.375 193.767, 212 195.538 C 210.625 197.310, 206.072 202.976, 201.883 208.130 C 197.693 213.283, 192.848 219.525, 191.116 222 C 189.384 224.475, 185.317 230.372, 182.078 235.104 C 178.840 239.836, 175.182 245.686, 173.951 248.104 C 172.719 250.522, 170.702 253.850, 169.467 255.500 C 168.233 257.150, 165.429 262.100, 163.237 266.500 C 161.044 270.900, 158.062 276.750, 156.611 279.500 C 155.160 282.250, 152.151 288.506, 149.925 293.402 C 147.698 298.298, 144.143 306.916, 142.026 312.553 C 139.908 318.190, 137.712 323.669, 137.146 324.728 C 136.579 325.787, 133.676 334.719, 130.696 344.577 C 127.715 354.435, 124.126 367.450, 122.720 373.500 C 121.315 379.550, 119.654 387.650, 119.030 391.500 C 118.406 395.350, 117.256 402.325, 116.474 407 C 115.693 411.675, 114.339 420.496, 113.466 426.602 C 112.565 432.897, 111.690 447.500, 111.445 460.332 C 111.206 472.778, 111.431 490.957, 111.945 500.730 C 112.459 510.504, 113.564 522.775, 114.399 528 C 115.235 533.225, 116.641 542.079, 117.522 547.675 C 118.404 553.271, 120.662 564.071, 122.539 571.675 C 124.417 579.279, 127.724 590.900, 129.889 597.500 C 132.055 604.100, 135.033 612.875, 136.508 617 C 137.982 621.125, 142.948 632.150, 147.542 641.500 C 152.136 650.850, 158.307 662.550, 161.255 667.500 C 164.203 672.450, 169.030 680.100, 171.982 684.500 C 174.934 688.900, 180.083 695.828, 183.425 699.896 C 186.766 703.964, 193.182 711.389, 197.682 716.396 C 202.182 721.403, 210.507 729.810, 216.182 735.078 C 221.857 740.346, 230.325 747.719, 235 751.463 C 239.675 755.208, 248.225 761.338, 254 765.087 C 259.775 768.835, 265.625 772.794, 267 773.885 C 269.438 775.818, 269.458 775.936, 267.796 778.683 C 266.859 780.233, 264.695 783.975, 262.987 787 C 261.279 790.025, 258.135 795.425, 256 799 C 253.865 802.575, 250.682 808.200, 248.926 811.500 C 247.171 814.800, 244.541 819.300, 243.082 821.500 C 241.623 823.700, 239.143 827.975, 237.569 831 C 235.996 834.025, 234.150 837.175, 233.467 838 C 232.784 838.825, 230.761 842.425, 228.972 846 C 227.183 849.575, 224.740 853.850, 223.542 855.500 C 222.345 857.150, 219.869 861.425, 218.041 865 C 216.212 868.575, 214.169 872.175, 213.500 873 C 212.831 873.825, 210.484 877.875, 208.285 882 C 206.086 886.125, 202.073 893.564, 199.368 898.531 C 196.662 903.498, 193.529 908.898, 192.405 910.531 C 191.282 912.164, 188.425 917.277, 186.056 921.894 C 181.996 929.807, 181.778 930.651, 182.259 936.643 C 182.540 940.139, 183.457 944.048, 184.297 945.330 C 185.224 946.745, 194.990 952.387, 209.162 959.693 C 221.998 966.311, 250.997 981.238, 273.604 992.863 C 296.211 1004.488, 315.786 1013.978, 317.104 1013.952 C 318.422 1013.926, 321.063 1013.138, 322.974 1012.202 C 325.099 1011.161, 328.120 1008.051, 330.754 1004.191 C 333.122 1000.721, 337.776 991.946, 341.095 984.691 C 344.414 977.436, 349.295 967, 351.941 961.500 C 354.587 956, 359.560 945.650, 362.992 938.500 C 366.425 931.350, 371.140 921.450, 373.471 916.500 C 375.802 911.550, 379.976 902.775, 382.745 897 C 385.515 891.225, 392.601 876.150, 398.491 863.500 C 404.382 850.850, 410.462 837.800, 412.003 834.500 C 413.544 831.200, 415.743 826.362, 416.889 823.750 L 418.974 819 438.237 818.985 C 448.832 818.976, 467.323 818.315, 479.330 817.515 C 491.336 816.715, 502.586 815.825, 504.330 815.537 C 506.073 815.249, 517.400 813.399, 529.500 811.426 C 541.600 809.452, 556 806.743, 561.500 805.403 C 567 804.064, 578.475 801.156, 587 798.942 C 595.525 796.727, 605.650 794.006, 609.500 792.896 C 613.350 791.785, 622.350 789.062, 629.500 786.844 C 636.650 784.626, 648.070 780.829, 654.877 778.406 C 661.685 775.983, 668.265 774, 669.500 774 C 670.735 774, 674.615 776.302, 678.123 779.115 C 681.630 781.928, 688.100 786.592, 692.500 789.478 C 696.900 792.364, 703.104 795.688, 706.288 796.863 C 709.471 798.038, 713.681 799, 715.643 799 C 717.606 799, 721.940 799.707, 725.276 800.571 C 728.611 801.436, 734.073 803.523, 737.414 805.209 C 740.754 806.895, 755.865 817.511, 770.994 828.799 C 786.122 840.088, 807.500 856.021, 818.500 864.207 C 829.500 872.392, 841.425 881.297, 845 883.997 C 848.575 886.696, 860.275 895.416, 871 903.374 C 881.725 911.331, 893.200 919.885, 896.500 922.382 C 899.800 924.878, 909.475 932.120, 918 938.475 C 926.525 944.829, 936.418 951.484, 939.984 953.264 C 945.613 956.074, 947.398 956.480, 953.536 956.350 C 959.058 956.232, 962.072 955.534, 967.313 953.157 C 971.003 951.484, 976.716 947.999, 980.008 945.413 C 983.300 942.826, 988.063 938.197, 990.591 935.126 C 993.119 932.055, 996.511 926.624, 998.128 923.057 C 999.745 919.491, 1001.783 914.115, 1002.656 911.111 C 1003.707 907.498, 1004.082 903.425, 1003.766 899.075 C 1003.503 895.459, 1002.297 890.206, 1001.086 887.401 C 999.875 884.597, 996.997 880.452, 994.692 878.191 C 992.386 875.930, 985.775 871.209, 980 867.699 C 974.225 864.190, 964.775 858.355, 959 854.733 C 953.225 851.111, 941.525 843.808, 933 838.505 C 924.475 833.201, 913.728 826.531, 909.118 823.681 C 904.508 820.832, 894.288 814.599, 886.408 809.831 C 878.528 805.064, 870.599 800.051, 868.790 798.693 C 866.980 797.335, 863.250 795.030, 860.500 793.571 C 857.750 792.112, 851.900 788.612, 847.500 785.792 C 843.100 782.972, 834.775 777.757, 829 774.201 C 823.225 770.646, 814.900 765.534, 810.500 762.840 C 806.100 760.147, 798.928 755.770, 794.563 753.113 C 790.198 750.457, 784.399 746.082, 781.676 743.392 C 778.954 740.701, 773.878 734.216, 770.398 728.979 C 765.157 721.093, 762.754 718.517, 756.409 713.979 C 752.196 710.966, 746.443 707.039, 743.625 705.254 C 740.225 703.101, 737.251 702.007, 734.788 702.004 C 732.746 702.002, 728.566 702.939, 725.498 704.086 C 722.431 705.234, 717.887 707.934, 715.400 710.086 C 712.913 712.239, 709.954 714, 708.824 714 C 707.694 714, 705.705 712.762, 704.404 711.250 C 703.104 709.737, 699.761 705.821, 696.977 702.546 C 694.193 699.271, 689.347 694.658, 686.208 692.295 C 683.068 689.931, 678.025 687.051, 675 685.895 C 670.463 684.160, 668.099 683.886, 661.500 684.326 C 657.100 684.620, 650.800 685.614, 647.500 686.536 C 644.200 687.458, 636.775 689.297, 631 690.622 C 625.225 691.947, 610.375 694.981, 598 697.366 C 585.625 699.750, 568.975 702.671, 561 703.856 C 553.025 705.042, 545.150 706.122, 543.500 706.256 L 540.500 706.500 540.853 696.435 C 541.113 689.010, 540.779 685.115, 539.579 681.582 C 538.685 678.947, 536.590 674.810, 534.923 672.388 C 533.256 669.966, 529.284 665.850, 526.096 663.242 C 522.908 660.634, 519.445 657.987, 518.400 657.361 C 516.596 656.279, 516.739 655.750, 521.250 646.861 C 523.862 641.712, 527.506 634.800, 529.348 631.500 C 531.190 628.200, 533.729 623.700, 534.990 621.500 C 536.251 619.300, 538.415 615.475, 539.799 613 C 541.183 610.525, 546.011 601.975, 550.527 594 C 555.043 586.025, 561.778 573.650, 565.494 566.500 C 569.209 559.350, 575.558 547.650, 579.602 540.500 C 583.646 533.350, 588.145 524.125, 589.601 520 C 591.057 515.875, 592.467 509.575, 592.733 506 C 593.060 501.613, 592.680 497.659, 591.563 493.837 C 590.653 490.722, 588.503 486.222, 586.785 483.837 C 585.066 481.452, 582.837 478.912, 581.830 478.193 C 580.824 477.475, 580 475.961, 580 474.829 C 580 473.697, 581.089 470.685, 582.419 468.135 C 583.750 465.586, 587.595 457.425, 590.965 450 C 594.334 442.575, 598.758 433.125, 600.796 429 C 602.833 424.875, 605.205 421.370, 606.066 421.212 C 606.928 421.054, 615.478 424.613, 625.066 429.121 L 642.500 437.317 653.500 438.180 C 659.550 438.655, 672.825 439.484, 683 440.023 C 693.175 440.562, 709.600 441.438, 719.500 441.969 C 729.400 442.501, 746.500 443.397, 757.500 443.962 C 768.500 444.526, 785.023 445.093, 794.217 445.222 L 810.934 445.457 814.556 441.978 C 816.548 440.065, 819.207 436.475, 820.465 434 C 821.722 431.525, 823.256 427.120, 823.873 424.212 C 824.776 419.955, 824.717 418.260, 823.571 415.516 C 822.788 413.641, 818.107 406.796, 813.169 400.304 C 808.231 393.812, 799.535 382.605, 793.845 375.399 C 788.155 368.194, 777.216 354.469, 769.535 344.899 C 761.854 335.330, 751.493 322.550, 746.511 316.500 C 741.528 310.450, 736.562 304.328, 735.476 302.895 C 734.389 301.463, 730.055 296.028, 725.844 290.819 L 718.187 281.346 699.344 271.636 C 688.980 266.295, 679.712 260.993, 678.750 259.852 C 677.787 258.712, 677 256.803, 677 255.611 C 677 254.420, 675.833 249.857, 674.407 245.472 C 672.981 241.088, 670.308 235.025, 668.467 232 C 666.627 228.975, 661.900 223.221, 657.964 219.214 C 653.144 214.306, 648.637 210.843, 644.154 208.603 C 640.494 206.774, 635.025 204.688, 632 203.967 C 628.975 203.247, 622.450 202.668, 617.500 202.680 C 612.085 202.693, 606.349 203.355, 603.100 204.342 C 600.130 205.243, 594.654 207.385, 590.931 209.101 L 584.162 212.221 571.831 205.907 C 565.049 202.434, 557.025 198.447, 554 197.048 C 550.975 195.649, 539.725 190.054, 529 184.615 C 518.275 179.176, 503.425 171.580, 496 167.736 L 482.500 160.747 473.581 161.319 C 466.361 161.783, 463.462 162.482, 458.366 164.991 C 454.904 166.696, 450.776 169.662, 449.192 171.583 C 447.609 173.504, 444.382 178.546, 442.020 182.788 C 439.659 187.029, 436.273 192.975, 434.495 196 C 432.718 199.025, 427.170 209.600, 422.167 219.500 C 417.164 229.400, 409.263 245.163, 404.610 254.530 C 399.956 263.896, 394.966 274.696, 393.520 278.530 C 391.378 284.208, 391.017 286.427, 391.571 290.500 C 391.946 293.250, 393.256 297.774, 394.484 300.554 C 395.712 303.333, 398.243 307.347, 400.108 309.474 C 401.974 311.600, 405.802 314.814, 408.616 316.615 C 411.430 318.416, 415.705 320.972, 418.116 322.295 C 420.527 323.618, 435.100 331.125, 450.500 338.977 C 465.900 346.830, 480.525 354.482, 483 355.983 C 485.475 357.484, 490.500 360.353, 494.168 362.359 C 497.835 364.365, 501.039 366.567, 501.288 367.253 C 501.537 367.939, 501.110 370.051, 500.339 371.946 C 499.569 373.842, 497.891 376.767, 496.611 378.446 C 495.331 380.126, 493.130 383.778, 491.720 386.563 C 490.310 389.347, 488.508 392.163, 487.716 392.821 C 486.574 393.769, 485.126 393.489, 480.709 391.467 C 477.647 390.065, 472.649 388.513, 469.603 388.017 C 466.557 387.521, 462.362 387.372, 460.282 387.685 C 458.202 387.998, 454.260 389.355, 451.521 390.701 C 448.783 392.046, 443.608 395.551, 440.021 398.490 C 436.435 401.428, 429.877 407.807, 425.449 412.666 C 421.021 417.525, 409.321 431.583, 399.449 443.907 C 389.577 456.230, 379.103 469.280, 376.173 472.907 C 373.243 476.533, 364.538 486.584, 356.830 495.241 C 349.121 503.899, 335.543 518.028, 326.657 526.638 C 317.771 535.249, 307.125 544.792, 303 547.846 C 298.875 550.899, 291.235 556.571, 286.021 560.449 C 280.808 564.327, 273.870 570.200, 270.604 573.500 C 267.338 576.800, 263.252 581.750, 261.525 584.500 C 259.798 587.250, 257.796 591.352, 257.077 593.617 C 256.286 596.105, 255.929 600.654, 256.176 605.117 C 256.419 609.519, 257.337 614.051, 258.449 616.342 C 259.475 618.455, 262.514 622.590, 265.203 625.532 C 267.891 628.473, 272.185 632.050, 274.745 633.481 C 277.305 634.912, 288.422 639.169, 299.450 642.942 C 310.477 646.714, 322.875 651.016, 327 652.501 C 331.125 653.986, 335.096 655.768, 335.825 656.461 C 336.916 657.499, 336.443 658.875, 333.143 664.267 C 330.939 667.867, 328.196 672.655, 327.048 674.906 C 325.603 677.738, 324.311 679, 322.856 679 C 321.700 679, 317.410 676.970, 313.325 674.490 C 309.239 672.009, 301.757 666.866, 296.698 663.060 C 291.639 659.255, 284.309 653.072, 280.408 649.320 C 276.508 645.569, 269.745 638.225, 265.380 633 C 261.014 627.775, 256.282 621.925, 254.863 620 C 253.443 618.075, 250.355 613.350, 247.999 609.500 C 245.642 605.650, 241.572 598.450, 238.953 593.500 C 236.334 588.550, 232.540 580.509, 230.523 575.631 C 228.505 570.754, 225.727 563.554, 224.348 559.631 C 222.969 555.709, 220.523 547.775, 218.913 542 C 217.302 536.225, 215.510 529.475, 214.930 527 C 214.350 524.525, 212.990 517.550, 211.909 511.500 C 210.827 505.450, 209.280 495.342, 208.471 489.038 C 207.575 482.055, 207.019 469.550, 207.049 457.038 C 207.075 445.742, 207.492 432.225, 207.974 427 C 208.456 421.775, 209.576 413.225, 210.463 408 C 211.350 402.775, 212.479 396.025, 212.973 393 C 213.466 389.975, 214.786 384.125, 215.905 380 C 217.024 375.875, 220.383 365.075, 223.369 356 C 226.354 346.925, 231.036 334.100, 233.772 327.500 C 236.508 320.900, 241.204 310.550, 244.208 304.500 C 247.212 298.450, 252.270 288.550, 255.448 282.500 C 258.626 276.450, 264.837 265.650, 269.250 258.500 C 273.664 251.350, 281.150 239.658, 285.887 232.518 C 290.624 225.379, 297.327 215.704, 300.782 211.018 C 304.236 206.333, 311.661 196.667, 317.282 189.539 C 322.902 182.410, 329.300 174.493, 331.500 171.946 C 333.700 169.400, 339.093 163.082, 343.484 157.908 C 347.875 152.734, 351.700 148.275, 351.984 148 C 352.268 147.725, 355.421 144.125, 358.991 140 C 362.561 135.875, 371.561 125.790, 378.991 117.588 C 386.421 109.386, 395.529 99.261, 399.232 95.088 C 402.935 90.915, 406.618 86.162, 407.418 84.526 C 408.458 82.401, 408.571 81.188, 407.814 80.276 C 407.191 79.525, 404.644 79.028, 401.628 79.069 C 398.807 79.107, 391.100 80.659, 384.500 82.518 M 458.227 406.327 C 455.877 407.557, 449.610 412.825, 444.299 418.032 C 438.989 423.239, 426.860 437.278, 417.347 449.229 C 407.834 461.180, 394.119 478.055, 386.870 486.729 C 379.620 495.403, 371.197 505.200, 368.152 508.500 C 365.108 511.800, 356.965 520.308, 350.058 527.406 C 343.151 534.504, 332.768 544.629, 326.985 549.906 C 321.202 555.183, 313.607 561.525, 310.108 564 C 306.610 566.475, 300.186 571.115, 295.834 574.311 C 291.482 577.507, 285.533 582.511, 282.613 585.430 C 279.694 588.350, 276.336 592.739, 275.153 595.185 C 273.969 597.631, 273.010 600.952, 273.022 602.566 C 273.034 604.180, 273.873 607.325, 274.886 609.556 C 275.899 611.787, 278.678 615.281, 281.061 617.320 C 283.444 619.360, 286.993 621.467, 288.947 622.003 C 290.901 622.539, 298.575 624.962, 306 627.387 C 313.425 629.813, 328.275 634.959, 339 638.823 C 349.725 642.688, 362.100 647.410, 366.500 649.317 C 370.900 651.223, 380.350 655.558, 387.500 658.950 C 394.650 662.341, 406.443 668.289, 413.706 672.167 C 421.350 676.248, 427.606 680.275, 428.559 681.730 C 429.464 683.112, 430.229 685.650, 430.258 687.371 C 430.293 689.461, 428.639 693.169, 425.278 698.535 C 422.510 702.954, 416.647 713.754, 412.248 722.535 C 407.850 731.316, 402.959 742.325, 401.380 747 C 399.055 753.881, 398.508 757.229, 398.504 764.578 C 398.500 772.990, 398.706 773.926, 401.310 777.339 C 402.855 779.365, 405.722 781.693, 407.682 782.512 C 409.641 783.330, 413.454 784, 416.154 784 C 418.855 784, 422.525 783.390, 424.310 782.644 C 426.095 781.898, 429.677 778.929, 432.268 776.047 C 435.698 772.231, 439.863 764.917, 447.579 749.153 C 453.408 737.244, 460.658 723.183, 463.690 717.906 C 466.993 712.158, 470.327 707.647, 472.006 706.656 C 473.547 705.745, 475.963 705, 477.374 705 C 478.785 705, 481.640 705.976, 483.720 707.169 C 485.799 708.361, 489.625 710.381, 492.221 711.657 C 494.818 712.933, 498.801 714.395, 501.072 714.905 C 504.046 715.573, 506.511 715.444, 509.885 714.442 C 512.461 713.677, 516.084 711.577, 517.935 709.775 C 519.787 707.974, 522.124 704.700, 523.129 702.500 C 524.181 700.197, 524.963 696.166, 524.973 693 C 524.985 689.029, 524.359 686.458, 522.721 683.752 C 521.473 681.691, 518.163 678.316, 515.365 676.252 C 512.566 674.188, 508.215 671.289, 505.694 669.808 C 503.174 668.328, 500.372 665.686, 499.467 663.937 C 498.394 661.861, 498.036 659.622, 498.437 657.486 C 498.774 655.687, 502.481 647.529, 506.674 639.358 C 510.867 631.186, 515.805 622.129, 517.649 619.231 C 519.492 616.332, 521 613.725, 521 613.437 C 521 613.149, 525.656 604.721, 531.347 594.707 C 537.037 584.693, 544.524 571.100, 547.983 564.500 C 551.443 557.900, 558.256 545.300, 563.125 536.500 C 567.993 527.700, 572.882 517.924, 573.988 514.775 C 575.095 511.626, 576 507.224, 576 504.993 C 576 502.761, 575.386 499.467, 574.636 497.671 C 573.886 495.876, 571.806 493.173, 570.015 491.666 C 568.224 490.159, 565.125 488.242, 563.129 487.406 C 560.127 486.149, 558.760 486.093, 555.219 487.082 C 551.928 488.001, 549.352 489.976, 544.071 495.631 C 540.294 499.675, 534.513 507.376, 531.224 512.742 C 527.935 518.109, 522.183 527.900, 518.442 534.500 C 514.701 541.100, 507.385 553.925, 502.183 563 C 496.982 572.075, 488.893 586.025, 484.209 594 C 479.524 601.975, 473.215 612.550, 470.188 617.500 C 467.160 622.450, 463.752 627.850, 462.614 629.500 C 461.476 631.150, 459.208 633.962, 457.576 635.750 C 455.127 638.432, 453.872 639, 450.398 639 C 448.083 639, 444.459 638.142, 442.345 637.094 C 440.230 636.045, 436.714 634.402, 434.532 633.443 C 432.349 632.484, 426.274 629.793, 421.032 627.464 C 415.789 625.134, 405.908 620.656, 399.073 617.511 C 392.238 614.367, 380.622 609.360, 373.259 606.385 C 365.896 603.410, 358.083 600.063, 355.896 598.947 C 353.709 597.831, 351.431 595.845, 350.833 594.533 C 350.235 593.221, 350.063 590.877, 350.449 589.324 C 350.883 587.582, 354.627 583.243, 360.220 578 C 365.207 573.325, 376.086 562.058, 384.394 552.962 C 392.702 543.866, 403.026 532.166, 407.336 526.962 C 411.646 521.758, 417.763 514.350, 420.930 510.500 C 424.097 506.650, 429.571 499.749, 433.094 495.165 C 436.617 490.580, 445.125 479.499, 452 470.539 C 458.875 461.579, 466.571 451.605, 469.103 448.374 C 471.634 445.143, 475.861 438.781, 478.496 434.236 C 482.639 427.088, 483.286 425.228, 483.286 420.453 C 483.286 416.021, 482.814 414.421, 480.893 412.335 C 479.577 410.906, 475.800 408.447, 472.500 406.869 C 469.200 405.292, 465.600 404.022, 464.500 404.046 C 463.400 404.070, 460.577 405.097, 458.227 406.327" stroke="none" fill="#ffe803" fill-rule="evenodd"/></svg>